<svg width="137" height="32" viewBox="0 0 137 32" fill="none" xmlns="http://www.w3.org/2000/svg">
<rect x="2" y="2" width="28" height="28" stroke="#1C1C1C" stroke-width="4"/>
<path d="M63.56 27L55.432 15.96L58.024 14.36L67.208 27H63.56ZM48.488 27V4.6H51.624V27H48.488ZM50.664 17.144V14.328H57.928V17.144H50.664ZM58.312 16.152L55.368 15.704L63.4 4.6H66.824L58.312 16.152ZM94.552 4.6H97.752V27H94.552V4.6ZM81.688 27H78.488V4.6H81.688V27ZM94.84 17.016H81.368V14.232H94.84V17.016ZM122.818 27.256C121.111 27.256 119.522 26.968 118.05 26.392C116.599 25.816 115.341 25.016 114.274 23.992C113.207 22.9467 112.375 21.7307 111.778 20.344C111.181 18.9573 110.882 17.4427 110.882 15.8C110.882 14.1573 111.181 12.6427 111.778 11.256C112.375 9.86933 113.207 8.664 114.274 7.64C115.341 6.59467 116.599 5.784 118.05 5.208C119.501 4.632 121.09 4.344 122.818 4.344C124.525 4.344 126.093 4.632 127.522 5.208C128.973 5.76267 130.231 6.56267 131.298 7.608C132.386 8.632 133.218 9.83733 133.794 11.224C134.391 12.6107 134.69 14.136 134.69 15.8C134.69 17.464 134.391 18.9893 133.794 20.376C133.218 21.7627 132.386 22.9787 131.298 24.024C130.231 25.048 128.973 25.848 127.522 26.424C126.093 26.9787 124.525 27.256 122.818 27.256ZM122.818 24.408C124.055 24.408 125.197 24.1947 126.242 23.768C127.309 23.3413 128.226 22.744 128.994 21.976C129.783 21.1867 130.391 20.2693 130.818 19.224C131.266 18.1787 131.49 17.0373 131.49 15.8C131.49 14.5627 131.266 13.4213 130.818 12.376C130.391 11.3307 129.783 10.424 128.994 9.656C128.226 8.86666 127.309 8.25867 126.242 7.832C125.197 7.40533 124.055 7.192 122.818 7.192C121.559 7.192 120.397 7.40533 119.33 7.832C118.285 8.25867 117.367 8.86666 116.578 9.656C115.789 10.424 115.17 11.3307 114.722 12.376C114.295 13.4213 114.082 14.5627 114.082 15.8C114.082 17.0373 114.295 18.1787 114.722 19.224C115.17 20.2693 115.789 21.1867 116.578 21.976C117.367 22.744 118.285 23.3413 119.33 23.768C120.397 24.1947 121.559 24.408 122.818 24.408Z" fill="#1C1C1C"/>
</svg>
