<svg width="24" height="24" viewBox="0 0 24 24" fill="none" xmlns="http://www.w3.org/2000/svg">
<g clip-path="url(#clip0_353_1233)">
<path d="M12 0.960022C18.0974 0.960022 23.04 5.90258 23.04 12C23.04 18.0975 18.0974 23.04 12 23.04C5.90252 23.04 0.959961 18.0975 0.959961 12C0.959961 5.90258 5.90252 0.960022 12 0.960022ZM15.8083 16.5C16.0113 15.877 16.9627 9.6677 17.0803 8.44418C17.1158 8.07362 16.9987 7.82738 16.7692 7.71746C16.4918 7.58402 16.0809 7.65074 15.6043 7.82258C14.9505 8.05826 6.59276 11.6069 6.10988 11.8123C5.65196 12.0067 5.219 12.2189 5.219 12.5261C5.219 12.7421 5.34716 12.8635 5.70044 12.9898C6.06812 13.1208 6.99404 13.4016 7.54076 13.5523C8.06732 13.6978 8.66684 13.5715 9.00284 13.3627C9.359 13.1415 13.4692 10.3911 13.7644 10.1501C14.0592 9.90914 14.2944 10.2178 14.0534 10.4592C13.8124 10.7002 10.991 13.4386 10.619 13.8178C10.1673 14.2781 10.488 14.7552 10.7908 14.9463C11.1369 15.1642 13.6257 16.8336 14.0006 17.1015C14.3755 17.3693 14.7556 17.4907 15.1036 17.4907C15.4516 17.4907 15.635 17.0323 15.8083 16.5Z" fill="#1C1C1C"/>
</g>
<defs>
<clipPath id="clip0_353_1233">
<rect width="24" height="24" fill="white"/>
</clipPath>
</defs>
</svg>
