<svg width="24" height="24" viewBox="0 0 24 24" fill="none" xmlns="http://www.w3.org/2000/svg">
<path d="M19.6799 1.91998H4.31992C2.99512 1.91998 1.91992 2.99518 1.91992 4.31998V19.68C1.91992 21.0048 2.99512 22.08 4.31992 22.08H19.6799C21.0047 22.08 22.0799 21.0048 22.0799 19.68V4.31998C22.0799 2.99518 21.0047 1.91998 19.6799 1.91998ZM18.1055 15.84L16.3151 15.8352C16.3151 15.8352 16.2767 15.84 16.2143 15.84C16.0703 15.84 15.7727 15.8016 15.4223 15.5616C14.7935 15.1248 14.1935 14.04 13.7183 14.04C13.6847 14.04 13.6559 14.0448 13.6271 14.0544C13.2143 14.184 13.0895 14.5968 13.0895 15.1008C13.0895 15.2784 12.9647 15.36 12.6287 15.36H11.7023C10.6655 15.36 9.66232 15.336 8.53432 14.1024C6.87352 12.2832 5.31832 9.04798 5.31832 9.04798C5.31832 9.04798 5.23192 8.86078 5.32312 8.75038C5.40952 8.64958 5.61112 8.63998 5.68792 8.63998C5.70712 8.63998 5.71672 8.63998 5.71672 8.63998H7.63672C7.63672 8.63998 7.81432 8.67358 7.94392 8.76958C8.05432 8.85118 8.11192 8.99998 8.11192 8.99998C8.11192 8.99998 8.43832 9.63358 8.84632 10.3488C9.53272 11.5296 9.90232 11.9232 10.1663 11.9232C10.2095 11.9232 10.2527 11.9136 10.2959 11.8896C10.6895 11.6736 10.5743 9.92638 10.5743 9.92638C10.5743 9.92638 10.5791 9.29278 10.3727 9.01438C10.2143 8.79358 9.91192 8.73118 9.77752 8.71198C9.67192 8.69758 9.84472 8.44798 10.0751 8.33278C10.3727 8.18878 10.8671 8.15998 11.4623 8.15998H11.7503C12.3119 8.16958 12.3263 8.22718 12.5471 8.27998C13.2095 8.43838 12.9839 9.05758 12.9839 10.5408C12.9839 11.016 12.8975 11.6832 13.2383 11.9088C13.2623 11.9232 13.2959 11.9328 13.3391 11.9328C13.5599 11.9328 14.0351 11.6496 14.7935 10.368C15.2159 9.63838 15.5423 8.91358 15.5423 8.91358C15.5423 8.91358 15.6143 8.78398 15.7247 8.71678C15.8303 8.65438 15.8303 8.65438 15.9695 8.65438H15.9839C16.1375 8.65438 17.6639 8.63998 17.9999 8.63998H18.0383C18.3599 8.63998 18.6527 8.64478 18.7055 8.84158C18.7823 9.13918 18.4703 9.67198 17.6495 10.776C16.2959 12.5856 16.1423 12.4512 17.2655 13.4976C18.3407 14.496 18.5615 14.9808 18.5999 15.0432C19.0463 15.7824 18.1055 15.84 18.1055 15.84Z" fill="#1C1C1C"/>
</svg>
