<svg width="32" height="32" viewBox="0 0 32 32" fill="none" xmlns="http://www.w3.org/2000/svg">
<path d="M16.0004 1.28003C7.88389 1.28003 1.28037 7.88355 1.28037 16C1.28037 18.5344 1.93509 21.0266 3.17669 23.2256L1.30405 29.9072C1.24261 30.1267 1.30213 30.3623 1.46085 30.5255C1.58309 30.6515 1.74949 30.72 1.92037 30.72C1.97157 30.72 2.02341 30.7136 2.07397 30.7015L9.04741 28.9741C11.1767 30.1171 13.5748 30.72 16.0004 30.72C24.1168 30.72 30.7204 24.1165 30.7204 16C30.7204 7.88355 24.1168 1.28003 16.0004 1.28003ZM23.4052 21.1943C23.0903 22.066 21.5799 22.8615 20.8541 22.9683C20.2026 23.0637 19.3783 23.1047 18.4733 22.8205C17.9248 22.6477 17.2208 22.4186 16.3191 22.0339C12.5284 20.4173 10.0528 16.6483 9.86341 16.3994C9.67461 16.1504 8.32037 14.3763 8.32037 12.5402C8.32037 10.704 9.29637 9.80099 9.64325 9.42723C9.99013 9.05347 10.3991 8.96003 10.6512 8.96003C10.9034 8.96003 11.1549 8.96323 11.3757 8.97347C11.608 8.98499 11.9197 8.88579 12.2263 9.61411C12.5412 10.3616 13.297 12.1978 13.3904 12.3853C13.4852 12.5722 13.5479 12.7904 13.4224 13.0394C13.297 13.2883 13.2343 13.4439 13.0448 13.6621C12.8554 13.8803 12.648 14.1485 12.4778 14.3162C12.2884 14.5024 12.0919 14.704 12.312 15.0778C12.5322 15.4515 13.2906 16.6733 14.4144 17.6627C15.8576 18.9338 17.0756 19.328 17.4532 19.5149C17.8308 19.7018 18.0516 19.6704 18.2717 19.4215C18.4919 19.1719 19.2164 18.3315 19.4679 17.9584C19.7194 17.5853 19.9716 17.6467 20.3184 17.7715C20.6653 17.8957 22.5232 18.7981 22.9008 18.985C23.2785 19.1719 23.5306 19.2653 23.6253 19.4208C23.72 19.5757 23.72 20.3232 23.4052 21.1943Z" fill="#1C1C1C"/>
</svg>
